<svg class="svg-icon" style="width: 1em;height: 1em;vertical-align: middle;fill: currentColor;overflow: hidden;" viewBox="0 0 1024 1024" version="1.1" xmlns="http://www.w3.org/2000/svg"><path d="M554.666667 85.333333a128 128 0 0 1 128 128v309.333334A117.333333 117.333333 0 0 1 800 640v64a32 32 0 0 0 64 0v-264.106667l-20.778667-20.778666a74.666667 74.666667 0 0 1-21.888-52.778667V311.893333l-33.28-33.28a32 32 0 0 1 45.226667-45.269333l72.832 72.832c14.037333 13.994667 21.888 32.981333 21.888 52.778667V704a96 96 0 1 1-192 0V640c0-29.44-23.893333-53.333333-53.333333-53.333333v288h42.666666a32 32 0 0 1 0 64H128a32 32 0 0 1 0-64h42.666667V213.333333a128 128 0 0 1 128-128h256z m64 373.333334h-384v416h384v-416zM554.666667 149.333333H298.666667a64 64 0 0 0-63.701334 57.856L234.666667 213.333333v181.333334h384V213.333333a64 64 0 0 0-57.856-63.701333L554.666667 149.333333z" fill="#000000" /></svg>