<svg class="svg-icon" style="width: 1em; height: 1em;vertical-align: middle;fill: currentColor;overflow: hidden;" viewBox="0 0 1024 1024" version="1.1" xmlns="http://www.w3.org/2000/svg"><path d="M512 85.333333C276.48 85.333333 85.333333 276.48 85.333333 512 85.333333 747.52 276.48 938.666667 512 938.666667 747.52 938.666667 938.666667 747.52 938.666667 512 938.666667 276.48 747.52 85.333333 512 85.333333M512 170.666667C686.933333 170.666667 832 302.933333 853.333333 469.333333L725.333333 469.333333C704 422.4 614.4 384 512 384 409.6 384 320 422.4 298.666667 469.333333L170.666667 469.333333C192 302.933333 337.066667 170.666667 512 170.666667M170.666667 554.666667 298.666667 554.666667C307.2 610.133333 349.866667 708.266667 469.333333 725.333333L469.333333 853.333333C315.733333 836.266667 187.733333 708.266667 170.666667 554.666667M554.666667 853.333333 554.666667 725.333333C674.133333 708.266667 712.533333 610.133333 725.333333 554.666667L853.333333 554.666667C836.266667 708.266667 708.266667 836.266667 554.666667 853.333333Z"  /></svg>